<?xml version="1.0" encoding="UTF-8"?>
<svg id="uuid-cd80c0c6-ca77-4d12-91fe-e6abe19acd4a" data-name="Ebene 2" xmlns="http://www.w3.org/2000/svg" width="786.9343450761" height="2428.8667670149" viewBox="0 0 786.9343450761 2428.8667670149">
  <defs>
    <style>
      .uuid-0856028e-73cc-438c-82b9-593eb920c5dd {
        stroke: #235346;
        stroke-miterlimit: 10;
        stroke-width: 3px;
      }

      .uuid-0856028e-73cc-438c-82b9-593eb920c5dd, .uuid-e4c1e5eb-cc49-42cf-9716-29ba2679ac5a {
        fill: none;
      }

      .uuid-e4c1e5eb-cc49-42cf-9716-29ba2679ac5a {
        opacity: 1;
      }
    </style>
  </defs>
  <g id="uuid-f92b73b5-886e-407f-a8fe-dab22c7ac7c6" data-name="Layer 16">
    <g class="uuid-e4c1e5eb-cc49-42cf-9716-29ba2679ac5a">
      <g>
        <path class="uuid-0856028e-73cc-438c-82b9-593eb920c5dd" d="m752.4152695279,1.4638475471c127.3766037072,382.1298111217-154.8499888205,702.6085511969-154.8499888205,1212.9695359709"/>
        <path class="uuid-0856028e-73cc-438c-82b9-593eb920c5dd" d="m601.9976810452,1.4638475471c211.358550835,330.1801366787-30.372451765,702.6085511969-30.372451765,1212.9695359709"/>
        <path class="uuid-0856028e-73cc-438c-82b9-593eb920c5dd" d="m451.5800962982,1.4638475471c295.340495877,278.230463526,94.1050821992,702.6085511969,94.1050821992,1212.9695359709"/>
        <path class="uuid-0856028e-73cc-438c-82b9-593eb920c5dd" d="m301.1625115512,1.4638475471c379.3224409191,226.2807903732,218.5826161634,702.6085511969,218.5826161634,1212.9695359709"/>
        <path class="uuid-0856028e-73cc-438c-82b9-593eb920c5dd" d="m150.7449268042,1.4638475471c463.3043859611,174.3311172205,343.0601501275,702.6085511969,343.0601501275,1212.9695359709"/>
        <path class="uuid-0856028e-73cc-438c-82b9-593eb920c5dd" d="m.3273383216,1.4638475471c547.2863330889,122.3814427775,467.5376871831,702.6085511969,467.5376871831,1212.9695359709"/>
      </g>
      <g>
        <path class="uuid-0856028e-73cc-438c-82b9-593eb920c5dd" d="m752.4152695007,2427.4029195016c127.3766037244-382.129811116-154.849988789-702.6085512039-154.8499887661-1212.9695359778"/>
        <path class="uuid-0856028e-73cc-438c-82b9-593eb920c5dd" d="m601.997681018,2427.4029194948c211.3585508498-330.1801366692-30.3724517334-702.6085511983-30.3724517105-1212.9695359722"/>
        <path class="uuid-0856028e-73cc-438c-82b9-593eb920c5dd" d="m451.580096271,2427.402919488c295.3404958895-278.2304635127,94.1050822308-702.6085511927,94.1050822537-1212.9695359666"/>
        <path class="uuid-0856028e-73cc-438c-82b9-593eb920c5dd" d="m301.162511524,2427.4029194813c379.3224409292-226.2807903562,218.5826161949-702.6085511871,218.5826162178-1212.969535961"/>
        <path class="uuid-0856028e-73cc-438c-82b9-593eb920c5dd" d="m150.744926777,2427.4029194745c463.3043859689-174.3311171997,343.0601501591-702.6085511815,343.060150182-1212.9695359555"/>
        <path class="uuid-0856028e-73cc-438c-82b9-593eb920c5dd" d="m.3273382943,2427.4029194678c547.2863330943-122.3814427529,467.5376872147-702.6085511759,467.5376872376-1212.9695359499"/>
      </g>
    </g>
  </g>
</svg>