<?xml version="1.0" encoding="UTF-8"?>
<svg id="uuid-aa186f1a-d41b-48b5-a240-5c4eaa7d7eb0" data-name="Ebene 2" xmlns="http://www.w3.org/2000/svg" width="523.5705" height="523.5701" xmlns:xlink="http://www.w3.org/1999/xlink" viewBox="0 0 523.5705 523.5701">
  <defs>
    <linearGradient id="uuid-29c4e597-977a-4c29-8e8b-46f8d4b50276" x1="74.2241" y1="45.8054" x2="431.6659" y2="457.4055" gradientUnits="userSpaceOnUse">
      <stop offset="0" stop-color="#ffb41c"/>
      <stop offset="1" stop-color="#ffa214"/>
    </linearGradient>
    <linearGradient id="uuid-51f08f2d-285b-4f28-b2a6-8e4d125da1b0" x1="150.0541" y1="130.1907" x2="393.7627" y2="417.2257" gradientTransform="translate(261.785 -108.435) rotate(45)" gradientUnits="userSpaceOnUse">
      <stop offset="0" stop-color="#ffc825"/>
      <stop offset="1" stop-color="#ffb41c"/>
    </linearGradient>
  </defs>
  <g id="uuid-53c998ab-90e2-446b-b513-7822f72096c2" data-name="Layer 2">
    <g>
      <path d="m303.4162,114.6513h-83.2616l29.1912-105.1943c1.5518-5.5887,6.6391-9.457,12.4397-9.457h0c5.7999,0,10.8879,3.8682,12.4384,9.457l29.1924,105.1943Zm-211.2581-40.0849c-5.0481-2.8554-11.3814-1.9926-15.4826,2.1086h0c-4.1019,4.1013-4.9641,10.434-2.1094,15.4826l53.7425,95.0262,58.875-58.8758-95.0255-53.7417ZM9.4571,249.3459c-5.5889,1.5505-9.4571,6.6391-9.4571,12.4391v.0006c0,5.7993,3.8682,10.8881,9.4571,12.4384l105.1941,29.1925v-83.2629l-105.1941,29.1924Zm65.109,182.0663c-2.8547,5.0488-1.9925,11.3814,2.1094,15.4834h0c4.1013,4.1013,10.4346,4.9641,15.4826,2.1081l95.0255-53.7412-58.875-58.8757-53.7425,95.0255Zm174.7797,82.7007c1.5518,5.5887,6.6391,9.4571,12.4397,9.4571h0c5.7999,0,10.8879-3.8684,12.4384-9.4571l29.1924-105.1938h-83.2616l29.1912,105.1938Zm182.0663-65.1093c5.0486,2.856,11.382,1.9932,15.4832-2.1081h0c4.1014-4.102,4.9641-10.4346,2.1081-15.4834l-53.7411-95.0255-58.875,58.8757,95.0248,53.7412Zm82.7007-174.7797c5.59-1.5503,9.4577-6.6391,9.4577-12.4384v-.0006c0-5.8-3.8677-10.8886-9.4577-12.4391l-105.1938-29.1924v83.2629l105.1938-29.1925Zm-65.1094-182.0663c2.856-5.0486,1.9934-11.3814-2.1081-15.4826h0c-4.1013-4.1013-10.4346-4.9641-15.4832-2.1086l-95.0248,53.7417,58.875,58.8758,53.7411-95.0262Z" style="fill: url(#uuid-29c4e597-977a-4c29-8e8b-46f8d4b50276);"/>
      <circle cx="264.3426" cy="263.7407" r="165.6528" transform="translate(-109.0687 264.1663) rotate(-45)" style="fill: #ffa214;"/>
      <circle cx="261.7851" cy="261.785" r="165.6535" transform="translate(-108.4348 261.7851) rotate(-45)" style="fill: url(#uuid-51f08f2d-285b-4f28-b2a6-8e4d125da1b0);"/>
      <path d="m121.0534,349.2096c-19.3622-30.1484-28.4013-66.9353-24.9186-102.7892,3.3487-35.7647,18.1167-70.6508,42.716-97.1178,12.2382-13.1883,26.4302-24.6634,42.2679-33.2767,15.8468-8.5654,33.0109-14.5727,50.689-17.8329l13.343-1.9473,13.4679-.631c8.978-.3734,17.9771.3714,26.8613,1.6349,17.7554,2.7307,35.0292,8.3594,50.9239,16.5993-32.1528-15.9124-69.2908-20.5995-104.3185-14.1297-17.4883,3.358-34.425,9.4289-50.0243,18.0061-15.5929,8.6237-29.5074,20.0707-41.4943,33.1487-24.4509,25.9219-39.3122,60.2772-42.8925,95.687-3.5285,35.4831,4.8059,72.0299,23.3794,102.6487Z" style="fill: #ffeb57;"/>
    </g>
  </g>
</svg>