<?xml version="1.0" encoding="UTF-8"?>
<svg id="uuid-af5e92bf-28e3-4723-acb4-e2748e53a4c6" data-name="Ebene 2" xmlns="http://www.w3.org/2000/svg" width="57.5357" height="50.1371" viewBox="0 0 57.5357 50.1371">
  <g id="uuid-c9134621-6795-460c-a119-56f938cb80cf" data-name="Layer 2">
    <g>
      <path d="m34.3927,35.2563h11.3997c5.6572,0,10.2433-4.5861,10.2433-10.2433,0-3.5175-1.7736-6.6199-4.4746-8.4643-1.4589-5.1862-6.2201-8.9896-11.8727-8.9896-1.3864,0-2.7178.2321-3.9617.6539-2.2332-4.0037-6.5085-6.713-11.4184-6.713-7.2174,0-13.0683,5.8509-13.0683,13.0683,0,.0718.0043.1425.0054.214-5.4259.2598-9.7453,4.7405-9.7453,10.2307,0,5.6572,4.586,10.2433,10.2432,10.2433h22.6495" style="fill: none; stroke: #fff; stroke-linecap: round; stroke-linejoin: round; stroke-width: 3px;"/>
      <line x1="12.9166" y1="40.6856" x2="12.9166" y2="45.0811" style="fill: none; stroke: #fff; stroke-linecap: round; stroke-linejoin: round; stroke-width: 3px;"/>
      <line x1="8.7363" y1="43.7228" x2="12.9166" y2="45.0811" style="fill: none; stroke: #fff; stroke-linecap: round; stroke-linejoin: round; stroke-width: 3px;"/>
      <line x1="10.333" y1="48.6371" x2="12.9166" y2="45.0811" style="fill: none; stroke: #fff; stroke-linecap: round; stroke-linejoin: round; stroke-width: 3px;"/>
      <line x1="15.5002" y1="48.6371" x2="12.9166" y2="45.0811" style="fill: none; stroke: #fff; stroke-linecap: round; stroke-linejoin: round; stroke-width: 3px;"/>
      <line x1="17.097" y1="43.7228" x2="12.9166" y2="45.0811" style="fill: none; stroke: #fff; stroke-linecap: round; stroke-linejoin: round; stroke-width: 3px;"/>
      <line x1="28.7678" y1="40.6856" x2="28.7678" y2="45.0811" style="fill: none; stroke: #fff; stroke-linecap: round; stroke-linejoin: round; stroke-width: 3px;"/>
      <line x1="24.5874" y1="43.7228" x2="28.7678" y2="45.0811" style="fill: none; stroke: #fff; stroke-linecap: round; stroke-linejoin: round; stroke-width: 3px;"/>
      <line x1="26.1842" y1="48.6371" x2="28.7678" y2="45.0811" style="fill: none; stroke: #fff; stroke-linecap: round; stroke-linejoin: round; stroke-width: 3px;"/>
      <line x1="31.3514" y1="48.6371" x2="28.7678" y2="45.0811" style="fill: none; stroke: #fff; stroke-linecap: round; stroke-linejoin: round; stroke-width: 3px;"/>
      <line x1="32.9482" y1="43.7228" x2="28.7678" y2="45.0811" style="fill: none; stroke: #fff; stroke-linecap: round; stroke-linejoin: round; stroke-width: 3px;"/>
      <line x1="44.619" y1="40.6856" x2="44.619" y2="45.0811" style="fill: none; stroke: #fff; stroke-linecap: round; stroke-linejoin: round; stroke-width: 3px;"/>
      <line x1="40.4386" y1="43.7228" x2="44.619" y2="45.0811" style="fill: none; stroke: #fff; stroke-linecap: round; stroke-linejoin: round; stroke-width: 3px;"/>
      <line x1="42.0354" y1="48.6371" x2="44.619" y2="45.0811" style="fill: none; stroke: #fff; stroke-linecap: round; stroke-linejoin: round; stroke-width: 3px;"/>
      <line x1="47.2026" y1="48.6371" x2="44.619" y2="45.0811" style="fill: none; stroke: #fff; stroke-linecap: round; stroke-linejoin: round; stroke-width: 3px;"/>
      <line x1="48.7994" y1="43.7228" x2="44.619" y2="45.0811" style="fill: none; stroke: #fff; stroke-linecap: round; stroke-linejoin: round; stroke-width: 3px;"/>
    </g>
  </g>
</svg>