<?xml version="1.0" encoding="UTF-8"?>
<svg id="uuid-d1c56d88-ccdd-4da6-89df-cf5e81e5b05a" data-name="Ebene 2" xmlns="http://www.w3.org/2000/svg" width="77.2362" height="48.9505" viewBox="0 0 77.2362 48.9505">
  <g id="uuid-01d8edb7-712b-44bb-942a-dd8dfaf1e2ef" data-name="Layer 2">
    <path d="m46.275,47.4505h15.5177c7.7009,0,13.9436-6.2427,13.9436-13.9436,0-4.7881-2.4143-9.0113-6.091-11.522-1.986-7.0597-8.467-12.237-16.1616-12.237-1.8872,0-3.6996.316-5.3929.8901-3.04-5.45-8.8596-9.138-15.5433-9.138-9.8247,0-17.7891,7.9645-17.7891,17.7891,0,.0977.0059.194.0074.2913-7.3859.3536-13.2657,6.453-13.2657,13.9265,0,7.7008,6.2427,13.9436,13.9435,13.9436h30.8314" style="fill: none; stroke: #fff; stroke-linecap: round; stroke-linejoin: round; stroke-width: 3px;"/>
  </g>
</svg>