<?xml version="1.0" encoding="UTF-8"?>
<svg id="uuid-74e13c81-8947-4312-aacb-607624fd97f9" data-name="Ebene 2" xmlns="http://www.w3.org/2000/svg" width="64.835" height="62.9863" viewBox="0 0 64.835 62.9863">
  <g id="uuid-01064c79-cad7-445c-9c05-27225cddc5e9" data-name="Layer 2">
    <g>
      <path d="m38.7952,39.7744h12.9254c6.4144,0,11.6143-5.1999,11.6143-11.6143,0-3.9883-2.011-7.506-5.0735-9.5972-1.6542-5.8803-7.0526-10.1928-13.4618-10.1928-1.572,0-3.0816.2632-4.492.7414-2.5321-4.5396-7.3796-7.6115-12.9467-7.6115-8.1835,0-14.8174,6.634-14.8174,14.8174,0,.0814.0049.1616.0062.2427-6.1521.2946-11.0497,5.375-11.0497,11.6,0,6.4144,5.1999,11.6143,11.6142,11.6143h5.9995" style="fill: none; stroke: #fff; stroke-linecap: round; stroke-linejoin: round; stroke-width: 3px;"/>
      <polygon points="31.496 32.023 37.4737 15.8957 27.2263 15.8957 19.1137 39.7765 30.0016 39.7765 24.5577 61.4863 43.8782 32.023 31.496 32.023" style="fill: none; stroke: #fff; stroke-linecap: round; stroke-linejoin: round; stroke-width: 3px;"/>
    </g>
  </g>
</svg>