<?xml version="1.0" encoding="UTF-8"?>
<svg xmlns="http://www.w3.org/2000/svg" width="1080" height="1920" xmlns:xlink="http://www.w3.org/1999/xlink" viewBox="0 0 1080 1920">
  <defs>
    <linearGradient id="uuid-c1c9fc4b-d373-4354-8b36-90c5f00a04cc" x1="-210" y1="210" x2="1290" y2="1710" gradientUnits="userSpaceOnUse">
      <stop offset="0" stop-color="#97afb9"/>
      <stop offset="1" stop-color="#657d86"/>
    </linearGradient>
    <linearGradient id="uuid-5631baec-791c-4af2-83ca-a6dc5c9ca3b0" x1="541.2447" y1="1592.6896" x2="539.6277" y2="1830.3661" gradientUnits="userSpaceOnUse">
      <stop offset="0" stop-color="#5b5b5b"/>
      <stop offset="1" stop-color="#707070"/>
    </linearGradient>
    <linearGradient id="uuid-49f5c19c-68f0-4eec-9dbb-4f14fedb1e66" x1="673.1339" y1="1515.0755" x2="669.9818" y2="1562.3565" gradientUnits="userSpaceOnUse">
      <stop offset="0" stop-color="#a4a4a4"/>
      <stop offset="1" stop-color="#bfbfbf"/>
    </linearGradient>
    <linearGradient id="uuid-4f6ce72a-28eb-41af-bc32-508bfd6efdf6" x1="592.3413" y1="1674.4898" x2="591.3921" y2="1678.3364" gradientUnits="userSpaceOnUse">
      <stop offset="0" stop-color="#fffaf2"/>
      <stop offset=".01" stop-color="#fff9f1" stop-opacity=".9884"/>
      <stop offset=".3828" stop-color="#fff1dc" stop-opacity=".571"/>
      <stop offset=".682" stop-color="#ffebcd" stop-opacity=".2638"/>
      <stop offset=".8931" stop-color="#ffe7c4" stop-opacity=".0733"/>
      <stop offset=".9975" stop-color="#ffe6c1" stop-opacity="0"/>
    </linearGradient>
    <linearGradient id="uuid-25de79b2-57e3-4b6e-8634-8c42c73cc695" x1="299.0284" y1="1582.9837" x2="273.0297" y2="1688.3471" gradientUnits="userSpaceOnUse">
      <stop offset="0" stop-color="#fffaf2"/>
      <stop offset=".01" stop-color="#fff9f1" stop-opacity=".9884"/>
      <stop offset=".3828" stop-color="#fff1dc" stop-opacity=".571"/>
      <stop offset=".682" stop-color="#ffebcd" stop-opacity=".2638"/>
      <stop offset=".8931" stop-color="#ffe7c4" stop-opacity=".0733"/>
      <stop offset=".9975" stop-color="#ffe6c1" stop-opacity="0"/>
    </linearGradient>
    <linearGradient id="uuid-a6d6e9aa-5e7c-4b48-9bca-a426c9ce3ff1" x1="543.5544" y1="1402.3934" x2="541.7894" y2="1433.4572" gradientUnits="userSpaceOnUse">
      <stop offset="0" stop-color="#bfbfbf"/>
      <stop offset="1" stop-color="#cfcfcf"/>
    </linearGradient>
    <linearGradient id="uuid-d28b7a12-a8d1-4465-838a-b6834915f1e5" x1="0" y1="1665.0204" x2="1080" y2="1665.0204" gradientUnits="userSpaceOnUse">
      <stop offset="0" stop-color="#949494"/>
      <stop offset="1" stop-color="#b0b0b0"/>
    </linearGradient>
    <linearGradient id="uuid-17e60d76-1258-4d18-a037-a3638e6aa6da" x1="619.4062" y1="1407.4382" x2="633.9351" y2="1476.1712" gradientUnits="userSpaceOnUse">
      <stop offset="0" stop-color="#fffaf2"/>
      <stop offset=".1274" stop-color="#fff6e8" stop-opacity=".8084"/>
      <stop offset=".3056" stop-color="#fff1dc" stop-opacity=".5658"/>
      <stop offset=".4767" stop-color="#ffedd2" stop-opacity=".3636"/>
      <stop offset=".6359" stop-color="#ffeacb" stop-opacity=".206"/>
      <stop offset=".7806" stop-color="#ffe7c5" stop-opacity=".093"/>
      <stop offset=".9058" stop-color="#ffe6c2" stop-opacity=".0243"/>
      <stop offset=".9975" stop-color="#ffe6c1" stop-opacity="0"/>
    </linearGradient>
    <linearGradient id="uuid-835e1c9b-af19-4c0a-911f-5163f58ee56f" x1="904.8669" y1="1317.5955" x2="933.6158" y2="1453.6" xlink:href="#uuid-17e60d76-1258-4d18-a037-a3638e6aa6da"/>
    <linearGradient id="uuid-8d828cbc-3043-450b-aea4-abd03df861ad" x1="168.5467" y1="1336.4151" x2="128.644" y2="1428.4984" xlink:href="#uuid-17e60d76-1258-4d18-a037-a3638e6aa6da"/>
    <linearGradient id="uuid-b4a7dacd-2445-427b-8f16-9b5b24977cc1" x1="877.0595" y1="1485.3226" x2="891.5432" y2="1632.5732" gradientUnits="userSpaceOnUse">
      <stop offset="0" stop-color="#fffaf2"/>
      <stop offset="1" stop-color="#ffe6c1" stop-opacity="0"/>
    </linearGradient>
  </defs>
  <g style="fill: none; isolation: isolate;">
    <g id="uuid-06886a18-b2ec-472b-a0a6-e2c72b03230c" data-name="Layer 1">
      <rect width="1080" height="1920" style="fill: url(#uuid-c1c9fc4b-d373-4354-8b36-90c5f00a04cc);"/>
      <rect width="1080" height="1920" style="fill: #fff; opacity: .24;"/>
    </g>
    <g id="uuid-3e2e0e9f-687d-414d-bb2e-82e7f265b135" data-name="Layer 3">
      <path d="m1071.0044,1837.3263c-61.2576-25.4186-122.5009-50.8373-183.7441-76.2422-10.0224-4.1547-20.0303-8.3095-30.0383-12.4642-5.8743-2.4378-11.787-4.8743-17.7164-7.3056l-2.552-11.0856-2.1131,9.1786c-.7718-.3149-1.5407-.631-2.3132-.9455l-4.5733-19.8655-3.7947,16.4821c-2.7288-1.0993-5.4533-2.2022-8.1923-3.2923l-3.0364-13.1898-2.5322,10.9987c-1.8896-.7449-3.779-1.4895-5.6731-2.2285l-5.2857-22.9592-2.5226,10.9574-3.4186-14.8496-4.7683,20.7112c-3.13-1.1786-6.2711-2.3305-9.4118-3.4847l-1.7057-7.4088-1.4388,6.2506c-10.5149-3.8294-21.082-7.5207-31.7038-10.9819-28.7376-9.3767-55.2532-16.2693-81.3838-20.1891l-1.3627-5.9194-1.2727,5.5282c-7.7725-1.1071-15.5169-1.9485-23.28-2.5098l-3.9614-17.2074-2.5227,10.9575-3.4187-14.8497-4.6927,20.3838c-7.736-.2048-15.5186-.138-23.3994.2363l-3.2623-14.1713-3.351,14.5558c-.2641.018-.5309.0426-.7949.0612l-7.205-31.2968-7.522,32.673c-2.9876.3439-5.9907.7226-9.0184,1.1511l-1.8574-8.0685-1.9894,8.6407c-7.8974,1.2044-15.9365,2.6806-24.1754,4.4728-75.24,16.3737-148.7545,44.1334-224.6695,30.7591-.392-.069-.7783-.1529-1.1693-.2248l-1.9423-8.4368-1.7777,7.7217c-10.3853-2.158-20.4139-5.2926-30.1981-9.1179l-5.0344-21.8687-3.4203,14.8568-1.9357-8.408-2.3099,10.0329c-42.1808-19.301-80.4564-49.8999-123.7821-69.1288l-1.4972-6.5039-1.2244,5.3186c-8.6004-3.7024-17.4034-6.9458-26.4817-9.5486l-2.2928-9.959-2.022,8.7826c-6.0172-1.5739-12.1586-2.8572-18.4405-3.8087l-1.9691-8.553-1.472,6.3942-4.4736-19.4328-4.6431,20.1676c-2.1154-.1597-4.2441-.288-6.3932-.3675l-3.5578-15.4539-3.5323,15.3433c-3.9344.0216-7.9301.1898-11.9843.499l-.9693-4.2098-1.0076,4.3769c-5.2927.4647-10.6913,1.1835-16.204,2.1779l-3.5984-15.6306-3.7554,16.3126-7.5956-32.9924-8.7765,38.1227c-3.9004,1.2038-7.8545,2.5268-11.8701,4.0098v288.7197h1080v-78.914c-3.0098-1.2669-6.0002-2.52-8.9956-3.7597Z" style="fill: url(#uuid-5631baec-791c-4af2-83ca-a6dc5c9ca3b0); mix-blend-mode: multiply;"/>
      <path d="m1062.2448,1651.872c-11.3328.8208-22.7232,1.584-33.8401,1.08-3.2688-.1441-6.5231-.3889-9.7343-.7776-14.6736-1.7856-28.3968-6.4224-41.5872-12.6576-7.9776-3.7728-15.7392-8.1216-23.4-12.7729-21.816-13.2479-42.7393-28.9871-64.8001-40.8239l-1.4831-6.4944-1.1809,5.0832c-4.2336-2.2032-8.5247-4.2481-12.8735-6.1056l-1.9009-8.2656-1.3823,6.0337-.9216-3.9888-.9504,4.1328c-12.4849-4.8097-25.4737-7.8912-39.312-8.1936-11.9088-.2592-23.8608,1.6271-35.784,3.9888l-1.8143-7.8625-1.9728,8.6256c-.8783.1728-1.7568.3601-2.6352.5329l-1.6704-7.2864-1.8576,8.0352c-21.4416,4.5216-42.6527,9.1152-63.0864,4.176l-.9072-3.9169-.792,3.4993c-.4031-.1152-.8064-.2304-1.1952-.3457l-1.8865-8.1647-1.6128,7.056c-1.2096-.4176-2.376-.864-3.5424-1.3393l-1.3104-5.7168-1.08,4.68c-.8496-.3888-1.6992-.792-2.5344-1.2096l-2.2032-9.5759-1.08,4.7232-1.4831-6.4079-1.7569,7.632c-1.5696-.9648-3.1248-1.9729-4.6655-3.0097l-.4176-1.8431-.3025,1.3392c-4.032-2.7936-7.92-5.8176-11.7648-8.9424-12.4848-10.1232-24.4943-21.1536-39.2544-27.6912l-.9216-3.9888-.7632,3.2832c-.6192-.2592-1.2384-.5184-1.872-.7632l-1.9872-8.6257-1.6848,7.3153c-6.5088-2.1455-13.176-3.4416-19.9728-4.104l-1.5121-6.552-1.4544,6.3072c-1.1231-.072-2.2463-.1441-3.3695-.1873h1.2385l-2.3041-10.0223-1.6271,7.0272-3.2689-14.2128-3.3407,14.4864-.9073-3.9744-1.5265,6.6239c-18.0864.5328-36.7343,3.672-55.2384,4.968l-1.7711-7.6753-1.8143,7.9057c-.3312.0144-.6481.0432-.9648.0576l-1.8288-7.9633-1.872,8.1217c-7.0415.2448-14.04.1295-20.952-.6049-17.7552-1.872-34.4305-7.7184-50.8032-14.7312l-1.5551-6.7248-1.2673,5.5152c-17.8416-7.7903-35.3664-16.7616-53.5679-23.2416l-1.4112-6.1199-1.1954,5.1984c-.3023-.1008-.6192-.2016-.9214-.3024l-2.7792-12.0816-2.3905,10.4256c-8.208-2.4912-16.5598-4.3921-25.1856-5.3424-5.4862-.6193-10.9439-.8352-16.3727-.72l-1.1664-5.0401-1.1809,5.1265c-33.9408,1.3248-66.7728,15.5519-97.8192,30.4271-.003.0015-.0059.0029-.0089.0044l.2331,1.0135c4.3575,1.01,8.7043,2.0647,13.0433,3.1514l1.9588-8.509,2.1951,9.5347c.6782.1739,1.3543.3541,2.0322.5298l.6626-2.8787.7496,3.2558c3.5764.9338,7.1494,1.8797,10.7103,2.8614l2.0478-8.8953,1.4728,6.3973,1.0869-4.7206,2.1002,9.1229c2.9701.8457,5.9447,1.6798,8.9023,2.5572l1.2816-5.5672,1.4756,6.4099c17.9183,5.3803,35.596,11.3024,52.9129,17.6541l.7573-3.2905.8983,3.9012c1.3551.4993,2.7059,1.01,4.059,1.514l1.8865-8.1934,1.4728,6.3972,1.0865-4.7205,2.0587,8.9427c.9518.3601,1.8996.7304,2.8501,1.0926l.9032-3.9226,1.0782,4.6831c1.3222.5062,2.6446,1.0118,3.9652,1.522l1.4288-6.2051,1.7053,7.4082c.4959.1929.9898.3914,1.4853.5848l.6864-2.9817.8233,3.5761c51.7758,20.2673,102.4538,43.4012,153.4589,65.5351l.4449-1.9321.5433,2.3608c.1761.0763.3524.1528.5283.2291l1.2358-5.3679,1.51,6.5589c4.6163,1.9971,9.235,3.9872,13.8585,5.9632l.5756-2.4996.7001,3.0414c57.5691,24.5706,115.7885,47.233,176.7109,62.4181,7.0707,1.7593,14.1554,3.4218,21.2836,4.9594,74.2894,16.1804,151.2574,20.835,227.1024,14.0471,32.6879-2.9231,65.1556-7.9655,97.109-15.1278v-40.6041c-5.8751.2881-11.8079.72-17.7552,1.1521Z" style="fill: url(#uuid-49f5c19c-68f0-4eec-9dbb-4f14fedb1e66); mix-blend-mode: multiply;"/>
      <g>
        <path d="m590.0424,1674.983l1.7254,7.4946c.2639-.0186.5308-.0432.7948-.0612l1.0937-4.7501c-1.1576-.9557-2.3638-1.851-3.6138-2.6833Z" style="fill: url(#uuid-4f6ce72a-28eb-41af-bc32-508bfd6efdf6);"/>
        <path d="m20.6465,1589.1477l7.5957,32.9925,3.7553-16.3126,3.5984,15.6306c5.5128-.9943,10.9114-1.7132,16.204-2.1778l1.0075-4.3769.9694,4.2099c4.0542-.3092,8.0498-.4775,11.9843-.4991l3.5322-15.3432,3.5579,15.4538c2.1489.0795,4.2778.2079,6.3932.3675l4.6431-20.1676,4.4736,19.4328,1.472-6.3942,1.9689,8.553c6.2818.9514,12.4233,2.2347,18.4405,3.8087l2.0221-8.7825,2.2926,9.9591c9.0785,2.6028,17.8814,5.8462,26.4818,9.5486l1.2245-5.3187,1.4972,6.5039c43.3256,19.2289,81.6013,49.8278,123.7821,69.1288l2.3099-10.0329,1.9356,8.408,3.4202-14.8569,5.0343,21.8688c9.7845,3.8254,19.8129,6.96,30.1981,9.1179l1.7779-7.7217,1.9422,8.4368c.3911.0718.7773.1559,1.1692.2249,75.9151,13.3742,149.4295-14.3855,224.6696-30.7592,8.239-1.7921,16.2781-3.2684,24.1754-4.4727l1.9894-8.6407,1.8575,8.0684c3.0277-.4285,6.0309-.8073,9.0185-1.1512l3.1709-13.7737c-3.2346-1.1349-6.5975-1.9015-10.0142-2.2258-11.9663-1.1377-23.6446,4.7374-32.5006,12.888-10.9584-10.3106-26.3376-15.7536-41.3568-14.6306-15.0049,1.1234-31.0609,6.7826-40.3776,18.6049-8.352-9.2158-21.4273-11.88-31.0032-3.9456-12.3551-18.36-32.1696-31.5502-53.8704-35.8558-21.715-4.32-49.8671.475-68.2991,12.7293-8.5681-13.9247-30.3408-17.28-42.667-6.552-6.97-15.7535-20.3764-28.5407-36.4466-34.7472-16.056-6.2063-36.101-5.8894-51.84,1.0945-4.1042-13.176-19.2385-23.8753-32.832-21.5568-18.3743-17.3951-47.7793-18.6768-70.8048-8.1935-19.8145-13.7808-44.0937-20.808-68.1992-20.4049v63.9958c4.0156-1.483,7.9697-2.806,11.8701-4.0098l8.7764-38.1227Z" style="fill: url(#uuid-25de79b2-57e3-4b6e-8634-8c42c73cc695); opacity: .5;"/>
      </g>
      <g style="fill: none; mix-blend-mode: multiply;">
        <path d="m1080,1470.648c-26.6543,4.9536-56.3328,22.6513-80.856,18.6336-50.5728-8.2655-100.5408-53.0352-147.2688-73.1088-53.2657-22.8672-96.5521-8.424-150.1632,13.7232-53.5968,22.1472-110.5344,47.9375-167.976,37.512-54.144-9.8208-99.864-50.904-154.9872-51.3792-31.5937-.2736-62.6833,13.176-93.9745,8.9711-62.7695-8.4095-118.7422-56.1456-183.8016-38.9087-37.9008,10.0512-69.192,33.0191-100.9728,54.7056v69.633c5.7651-1.7792,11.5762-3.3899,17.4123-4.8738l3.8219-16.6012,3.2719,14.2134,1.6177-7.0276,1.5991,6.9458c2.3326-.5227,4.6702-1.0207,7.0122-1.4988l.354-1.5373.3213,1.3964c1.8476-.3735,3.6996-.7271,5.5528-1.0736l1.2281-5.334,1.1262,4.8915c1.2493-.2257,2.5017-.4369,3.7536-.6502l1.4074-6.1137,1.3028,5.6591c47.1067-7.693,95.8774-6.8992,144.4112-.237l1.2156-5.2801,1.2943,5.6228c2.3959.3389,4.7913.6941,7.1856,1.0614l1.1837-5.1422,1.2711,5.5211c.6664.1048,1.3321.2166,1.9983.3233l1.3454-5.8444,1.4499,6.2967c10.9318,1.8036,21.8407,3.8811,32.7036,6.2207,2.5836.5561,5.1572,1.1636,7.7356,1.748l1.7-7.384,1.8863,8.1945-.2331-1.0135c.003-.0015.0059-.0029.0089-.0044,31.0464-14.8752,63.8784-29.1023,97.8192-30.4271l1.1809-5.1265,1.1664,5.0401c5.4288-.1153,10.8865.1007,16.3727.72,8.6258.9504,16.9776,2.8512,25.1856,5.3424l2.3905-10.4256,2.7792,12.0816c.3023.1008.6192.2016.9214.3024l1.1954-5.1984,1.4112,6.1199c18.2015,6.48,35.7264,15.4513,53.5679,23.2416l1.2673-5.5152,1.5551,6.7248c16.3727,7.0128,33.0481,12.8592,50.8032,14.7312,6.912.7344,13.9104.8497,20.952.6049l1.872-8.1217,1.8288,7.9633c.3167-.0144.6337-.0432.9648-.0576l1.8143-7.9057,1.7711,7.6753c18.5041-1.296,37.152-4.4353,55.2384-4.968l1.5265-6.6239.9073,3.9744,3.3407-14.4864,3.2689,14.2128,1.6271-7.0272,2.3041,10.0223h-1.2385c1.1232.0432,2.2464.1153,3.3695.1873l1.4544-6.3072,1.5121,6.552c6.7968.6624,13.464,1.9584,19.9728,4.104l1.6848-7.3153,1.9872,8.6257c.6337.2448,1.2528.5039,1.872.7632l.7632-3.2832.9216,3.9888c14.759,6.5371,26.7679,17.5665,39.2517,27.6891,15.691-3.8269,32.9753-1.5046,46.5011,7.4163,5.328-10.2671,21.0384-14.76,31.2047-9.2449,6.1488-18.072,23.4866-29.5774,42.5233-31.0031,19.0366-1.4256,38.4479,9.4031,47.2175,26.3665,9.7776-4.9826,25.272,1.2528,32.6159,9.4031,14.6882-8.5824,39.5282-2.9231,47.2898,12.1969,4.3488-11.3042,15.1632-19.3536,26.6543-23.1985,11.5055-3.8449,24.6816-2.2894,34.9632,4.1329,1.8001-11.3473,18.7778-21.9458,29.1889-17.093,2.0304-11.0878,8.3663-21.9456,16.8767-30.312,5.3424-5.2703,11.5632-9.5471,18.0866-12.2975,7.9774-3.3408,16.7463-4.6656,25.3574-4.0464" style="fill: url(#uuid-a6d6e9aa-5e7c-4b48-9bca-a426c9ce3ff1);"/>
      </g>
      <path d="m139.0041,1595.8829c13.5935-2.3185,28.7278,8.3808,32.832,21.5568,15.739-6.9839,35.784-7.3008,51.84-1.0945,16.0702,6.2065,29.4767,18.9937,36.4466,34.7472,12.3262-10.728,34.0989-7.3727,42.667,6.552,18.432-12.2544,46.5841-17.0494,68.2991-12.7293,21.7008,4.3055,41.5153,17.4958,53.8704,35.8558,9.5759-7.9344,22.6512-5.2702,31.0032,3.9456,9.3167-11.8223,25.3727-17.4814,40.3776-18.6049,15.0192-1.123,30.3984,4.32,41.3568,14.6306,8.856-8.1506,20.5344-14.0257,32.5006-12.888,3.4167.3245,6.7796,1.091,10.0141,2.2259l4.3511-18.8994,5.4797,23.8022c1.2501.8323,2.4562,1.7275,3.6138,2.6832l2.2573-9.8056,3.2624,14.1713c7.8807-.3742,15.6634-.441,23.3994-.2363l4.6926-20.3837,3.4188,14.8497,2.5227-10.9576,3.9615,17.2074c7.7632.5613,15.5075,1.4028,23.2801,2.5097l1.2727-5.5281,1.3626,5.9193c26.1305,3.9198,52.6461,10.8124,81.3837,20.1891,10.6219,3.4612,21.189,7.1525,31.7039,10.9819l1.4388-6.2506,1.7056,7.4088c3.1408,1.1541,6.2818,2.3061,9.4118,3.4847l4.7684-20.7113,3.4185,14.8495,2.5226-10.9573,5.2857,22.9593c1.8942.7389,3.7836,1.4835,5.6731,2.2285l2.5322-10.9987,3.0365,13.1898c2.739,1.0901,5.4634,2.1931,8.1923,3.2923l3.7946-16.4821,4.5733,19.8655c.7726.3144,1.5414.6306,2.3132.9455l2.113-9.1786,2.5521,11.0856c5.9294,2.4312,11.8421,4.8678,17.7164,7.3055,10.008,4.1546,20.016,8.3095,30.0383,12.4643,61.2432,25.4048,122.4866,50.8236,183.7442,76.2422,2.9953,1.2397,5.9857,2.4928,8.9955,3.7597v-149.7619c-31.9534,7.1623-64.4211,12.2047-97.109,15.1278-75.845,6.7879-152.813,2.1334-227.1024-14.0471-7.1281-1.5377-14.2129-3.2001-21.2836-4.9594-60.9223-15.1851-119.1418-37.8474-176.7109-62.4181l-.7001-3.0414-.5756,2.4996c-4.6235-1.976-9.2422-3.9661-13.8585-5.9632l-1.51-6.5589-1.2358,5.3679c-.1759-.0763-.3522-.1528-.5283-.2291l-.5433-2.3608-.4449,1.9321c-51.0051-22.1339-101.6831-45.2678-153.4589-65.5351l-.8233-3.5761-.6864,2.9817c-.4955-.1933-.9894-.3919-1.4853-.5848l-1.7053-7.4082-1.4288,6.2051c-1.3206-.5102-2.643-1.0158-3.9652-1.522l-1.0782-4.6831-.9032,3.9226c-.9506-.3622-1.8984-.7325-2.8501-1.0926l-2.0587-8.9427-1.0865,4.7205-1.4728-6.3972-1.8865,8.1934c-1.3531-.5039-2.7039-1.0147-4.059-1.514l-.8983-3.9012-.7573,3.2905c-17.3169-6.3517-34.9946-12.2738-52.9129-17.6541l-1.4756-6.4099-1.2816,5.5672c-2.9576-.8774-5.9322-1.7115-8.9023-2.5572l-2.1002-9.1229-1.0869,4.7206-1.4728-6.3973-2.0478,8.8953c-3.5609-.9818-7.1339-1.9276-10.7103-2.8614l-.7496-3.2558-.6626,2.8787c-.6779-.1757-1.3539-.3559-2.0322-.5298l-2.1951-9.5347-1.9588,8.509c-4.339-1.0867-8.6858-2.1414-13.0433-3.1514l-1.8863-8.1945-1.7,7.384c-2.5784-.5844-5.1521-1.192-7.7356-1.748-10.8629-2.3396-21.7717-4.417-32.7036-6.2207l-1.4499-6.2967-1.3454,5.8444c-.6662-.1066-1.3319-.2184-1.9983-.3233l-1.2711-5.5211-1.1837,5.1422c-2.3943-.3673-4.7898-.7224-7.1856-1.0614l-1.2943-5.6228-1.2156,5.2801c-48.5338-6.6622-97.3045-7.456-144.4112.237l-1.3028-5.6591-1.4074,6.1137c-1.2518.2133-2.5043.4245-3.7536.6502l-1.1262-4.8915-1.2281,5.334c-1.8532.3465-3.7052.7001-5.5528,1.0736l-.3213-1.3964-.354,1.5373c-2.342.4781-4.6796.9761-7.0122,1.4988l-1.5991-6.9458-1.6177,7.0276-3.2719-14.2134-3.8219,16.6012c-5.8361,1.4839-11.6472,3.0946-17.4123,4.8738v56.8546c24.1056-.403,48.3848,6.6241,68.1992,20.4049,23.0256-10.4833,52.4305-9.2016,70.8048,8.1935Z" style="fill: url(#uuid-d28b7a12-a8d1-4465-838a-b6834915f1e5); mix-blend-mode: multiply;"/>
      <g style="fill: none; opacity: .5;">
        <path d="m533.736,1467.408c57.4416,10.4255,114.3792-15.3647,167.976-37.512,15.0263-6.2075,29.2414-11.8092,43.0926-16.1543-11.962-9.7356-28.3715-4.1043-36.2805,9.1398-10.8143-5.7027-26.3233-3.3409-35.0351,5.2415-12.5138-14.976-33.7538-22.0464-52.7472-17.5823-18.9934,4.4782-36.1728,22.0608-40.6944,41.04-6.9266-5.9617-20.7072-1.8289-23.5873,6.84-14.3425-10.9539-36.1935-9.7724-50.0251,1.5038,8.9114,3.1764,17.9814,5.7933,27.3011,7.4836Z" style="fill: url(#uuid-17e60d76-1258-4d18-a037-a3638e6aa6da);"/>
        <path d="m1080,1293.0653c-7.7759.8208-15.3783,3.2688-22.1174,7.2576-12.2687,7.2288-27.1153,17.7841-30.7729,31.5505-14.6158-9.1728-33.7969-10.6128-49.6224-3.7007-15.8112,6.8974-32.2559,21.7151-35.4672,38.6782-22.68-12.2687-57.9312-4.1615-72.6337,17.0208-6.0913-5.1408-17.8702-7.099-24.5233-2.6928-15.6382-14.5584-39.3404-19.8289-59.6734-13.2767-20.3136,6.5456-36.1275,24.8917-40.3217,45.8193,35.5433-11.1412,68.6938-13.997,107.0073,2.4512,46.728,20.0736,96.696,64.8433,147.2688,73.1088,24.5232,4.0177,54.2016-13.68,80.856-18.6336v-177.5827Z" style="fill: url(#uuid-835e1c9b-af19-4c0a-911f-5163f58ee56f);"/>
      </g>
      <path d="m284.7743,1424.9999c10.0627,1.3522,20.1049.8743,30.1494-.3815-4.7529-8.6561-12.3823-15.7379-21.4508-19.6506-11.448-4.9249-28.8866-8.0496-40.2047-2.8081.6479-5.7024-1.9729-11.6638-6.6097-15.0479-4.6225-3.3839-11.088-4.1039-16.3295-1.7711-5.5584-15.1056-19.0514-27.0145-34.7185-30.6577-15.6673-3.6432-33.9842.101-45.6192,11.2032-1.584-6.4943-11.6351-12.3696-18.043-10.4544-6.2785-10.9295-17.381-18.9791-29.7218-21.571-12.3551-2.5778-27.5037-1.5842-37.6561,5.9181-8.3376-8.251-20.304-13.9247-31.4063-10.1375-5.9901-14.2561-18.591-25.2288-33.164-30.2687v141.4241c31.7808-21.6865,63.0719-44.6544,100.9728-54.7056,65.0593-17.2369,121.0321,30.4992,183.8016,38.9087Z" style="fill: url(#uuid-8d828cbc-3043-450b-aea4-abd03df861ad); opacity: .5;"/>
      <path d="m1054.6426,1493.1534c-6.5233,2.7504-12.7441,7.0272-18.0865,12.2975-8.5104,8.3665-14.8464,19.2241-16.8768,30.312-10.4111-4.8528-27.3888,5.7457-29.1888,17.0929-10.2816-6.4224-23.4576-7.9777-34.9632-4.1329-11.4912,3.845-22.3056,11.8944-26.6544,23.1985-7.7616-15.1199-32.6016-20.7791-47.2898-12.1969-7.3438-8.1503-22.8383-14.3856-32.6158-9.403-8.7697-16.9634-28.1809-27.792-47.2176-26.3665-19.0368,1.4255-36.3745,12.931-42.5233,31.0031-10.1663-5.5153-25.8766-1.0223-31.2047,9.2448-13.5258-8.9208-30.8101-11.2432-46.5012-7.4163.0009.0007.0018.0015.0027.0022,3.8448,3.1248,7.7328,6.1488,11.7648,8.9424l.3024-1.3391.4176,1.843c1.5407,1.0369,3.0959,2.0449,4.6655,3.0098l1.7569-7.6321,1.4832,6.408,1.08-4.7231,2.2032,9.5759c.8352.4176,1.6848.8208,2.5344,1.2096l1.08-4.6799,1.3104,5.7167c1.1663.4753,2.3327.9216,3.5424,1.3394l1.6127-7.056,1.8865,8.1647c.3887.1152.792.2306,1.1951.3457l.7921-3.4993.9072,3.917c20.4337,4.9391,41.6448.3455,63.0864-4.176l1.8575-8.0353,1.6704,7.2864c.8785-.1727,1.7569-.36,2.6352-.5328l1.9728-8.6256,1.8143,7.8624c11.9233-2.3616,23.8752-4.248,35.7841-3.9888,13.8384.3024,26.8271,3.3839,39.3121,8.1936l.9504-4.1328.9216,3.9888,1.3823-6.0337,1.9008,8.2656c4.3489,1.8577,8.64,3.9025,12.8735,6.1057l1.1809-5.0833,1.4832,6.4944c22.0608,11.8369,42.9841,27.576,64.8,40.824,7.6608,4.6512,15.4224,9.0001,23.4,12.7729,13.1903,6.2351,26.9136,10.8718,41.5872,12.6575,3.2112.3889,6.4656.6335,9.7344.7777,11.1168.504,22.5072-.2593,33.8401-1.08,5.9473-.4321,11.88-.864,17.7551-1.1521v-161.6129c-8.6112-.6193-17.3799.7057-25.3574,4.0464Z" style="fill: url(#uuid-b4a7dacd-2445-427b-8f16-9b5b24977cc1); opacity: .5;"/>
    </g>
  </g>
</svg>