<?xml version="1.0" encoding="UTF-8"?>
<svg id="uuid-021d35e0-7a7b-400b-b3c9-2f911bd180bd" data-name="Ebene 2" xmlns="http://www.w3.org/2000/svg" width="574.817" height="490.4742" xmlns:xlink="http://www.w3.org/1999/xlink" viewBox="0 0 574.817 490.4742">
  <defs>
    <linearGradient id="uuid-6811db6e-5702-4f46-bf61-dbbd1891cd88" x1="109.705" y1="51.4829" x2="381.3816" y2="303.3851" gradientUnits="userSpaceOnUse">
      <stop offset="0" stop-color="#00b9f7"/>
      <stop offset="1" stop-color="#0099db"/>
    </linearGradient>
    <linearGradient id="uuid-593dbed3-aba2-4d02-bac9-3b290f94f6a8" x1="249.2231" y1="181.1413" x2="421.1711" y2="380.6011" gradientTransform="translate(.5413 -3.5727) rotate(.1261)" gradientUnits="userSpaceOnUse">
      <stop offset="0" stop-color="#00cdf9"/>
      <stop offset="1" stop-color="#00b4eb"/>
    </linearGradient>
    <linearGradient id="uuid-8731d824-7085-405b-889e-648d7ed13d2b" x1="103.8621" y1="410.4712" x2="167.3985" y2="484.502" gradientUnits="userSpaceOnUse">
      <stop offset="0" stop-color="#e6f4f1"/>
      <stop offset="1" stop-color="#cedfe0"/>
    </linearGradient>
    <linearGradient id="uuid-a9d97040-e3bd-4db5-a467-08fff04929ae" x1="250.3158" y1="410.4712" x2="313.8522" y2="484.502" xlink:href="#uuid-8731d824-7085-405b-889e-648d7ed13d2b"/>
    <linearGradient id="uuid-a6f89d3f-b9fc-4822-a713-b5dd94a3d168" x1="394.4099" y1="410.4712" x2="457.9462" y2="484.502" xlink:href="#uuid-8731d824-7085-405b-889e-648d7ed13d2b"/>
  </defs>
  <g id="uuid-35a700bb-23a3-4b21-ac1b-ad1b53655f39" data-name="Layer 2">
    <g>
      <g>
        <g>
          <path d="m492.0099,157.2895c-13.3554-63.2494-80.2224-99.5918-140.5245-76.7537C331.5813,34.9103,286.0417,3.0538,233.0917,3.1735c-65.0681.1462-118.7287,48.5222-127.2994,111.2116C51.17,105.5906,1.892,147.7673,2.0156,202.8823c.1114,49.4043,40.2512,89.3642,89.6565,89.2528l415.4845-.9338c37.452-.0841,67.7446-30.5135,67.6602-67.9654-.0965-42.9688-39.9225-75.6382-82.8069-65.9464Z" style="fill: #0089dc;"/>
          <path d="m490.004,154.8536c-13.3554-63.2484-80.2224-99.5907-140.5248-76.7526C329.5753,32.4744,284.0358.6189,231.0858.7368c-65.0681.1472-118.7287,48.5222-127.2994,111.2127C49.1639,103.1558-.1139,145.3314.0097,200.4464c.1114,49.4043,40.2512,89.3642,89.6563,89.2528l415.4847-.9336c37.4518-.0844,67.7444-30.5136,67.6602-67.9656-.0965-42.9688-39.9225-75.639-82.8069-65.9464Z" style="fill: url(#uuid-6811db6e-5702-4f46-bf61-dbbd1891cd88);"/>
          <path d="m349.4793,78.1009c-11.4016-25.4452-31.2243-46.7437-55.3501-60.3368-24.2081-13.4864-52.8168-18.8197-80.1855-14.8405-27.4168,3.642-53.4137,16.7003-72.7802,36.3805-19.5988,19.4452-32.6253,45.3532-36.5463,72.7576l-.1209.8513-.8437-.1358c-12.6463-2.0433-25.7271-1.3991-38.0823,2.0313-12.3577,3.405-23.9552,9.5484-33.7594,17.841-9.775,8.3178-17.8156,18.7035-23.3026,30.3525C3.0065,174.6442.1249,187.5173.0097,200.4464c-.3915-25.8751,11.0869-51.8363,31.0211-68.7119,9.8827-8.465,21.6122-14.775,34.1508-18.313,12.5351-3.5634,25.847-4.3041,38.7379-2.3009l-.9636.7145c3.7974-27.7884,16.8483-54.1814,36.6596-74.078C159.3528,17.7631,185.9135,4.7385,213.7075,1.1949c27.7611-3.8621,56.6705,1.7258,81.0276,15.4913,24.4001,13.7653,43.7432,35.8683,54.7442,61.4147Z" style="fill: #0ce1ff;"/>
        </g>
        <g>
          <path d="m422.4242,194.9567c-13.6239-40.3053-51.7241-69.3345-96.6285-69.3345-56.8391,0-103.2759,46.6323-101.9452,104.3883-36.8413-1.2747-66.143,28.1928-66.143,63.8056,0,35.3018,28.6172,63.919,63.919,63.919h214.8835c45.2894,0,82.0044-36.7151,82.0044-82.0044-.001-50.8035-45.7531-89.4936-96.0902-80.7739Z" style="fill: #0098dc;"/>
          <path d="m420.7404,193.0941c-13.6239-40.3055-51.7231-69.3348-96.6285-69.3348-56.8383,0-103.2758,46.6325-101.9452,104.3875-36.8413-1.2737-66.143,28.1938-66.143,63.8066,0,35.3018,28.6181,63.919,63.919,63.919h214.8835c45.2894,0,82.0044-36.7151,82.0044-82.0044,0-50.8035-45.7529-89.4926-96.0902-80.7739Z" style="fill: url(#uuid-593dbed3-aba2-4d02-bac9-3b290f94f6a8);"/>
          <path d="m401.7756,159.6652c-13.742-15.8032-32.3855-26.9979-52.5099-32.0812-10.0605-2.5455-20.537-3.5446-30.8778-2.7561-10.3415.5656-20.6335,2.6906-30.2438,6.5647-19.4556,7.285-36.0351,21.1245-47.8152,38.073-5.7293,8.6194-10.1936,18.0442-13.2803,27.9437-2.8076,9.9886-4.1129,20.335-4.1243,30.7197l-.0019.8073-.7829-.0318c-14.744-.6014-29.6614,4.0868-41.314,13.2268-11.7605,8.9642-20.3013,22.2013-23.4711,36.8039,2.8008-14.6681,11.014-28.2875,22.7779-37.6861,11.7727-9.4052,26.9681-14.3441,42.0597-13.859l-.7829.7734c-.0833-10.5343,1.148-21.0614,3.9192-31.2543,3.0501-10.1037,7.5142-19.7504,13.2851-28.5984,11.7472-17.546,29.0919-31.3272,48.8807-38.6236,9.8182-3.8563,20.304-5.924,30.8067-6.4074,10.5027-.707,21.1139.4008,31.2805,3.0679,20.4248,5.1807,38.8539,17.2417,52.1942,33.3174Z" style="fill: #0cf1ff;"/>
        </g>
      </g>
      <g>
        <path d="m135.4714,394.9612c-7.0185,0-12.709,5.69-12.709,12.709v19.5829l-20.8175-5.6419c-6.7773-1.8383-13.7555,2.167-15.5915,8.942-1.8359,6.7747,2.168,13.755,8.942,15.5907l20.0262,5.4272-12.1033,18.6536c-3.8205,5.888-2.1445,13.7583,3.7436,17.5788,2.1378,1.3869,4.5348,2.0492,6.9058,2.0492,4.1612,0,8.2396-2.042,10.6737-5.793l11.1146-17.1302,12.0409,17.922c2.4535,3.6513,6.4696,5.6227,10.5607,5.6227,2.4372,0,4.9014-.6993,7.0758-2.1606,5.8264-3.9145,7.3767-11.8106,3.4624-17.6368l-12.888-19.1834,19.7389-5.3495c6.7742-1.8357,10.7782-8.816,8.942-15.5907-1.836-6.7742-8.8111-10.7769-15.5912-8.942l-20.817,5.6416v-19.5827c0-7.0191-5.6905-12.709-12.709-12.709Z" style="fill: #97afb9;"/>
        <path d="m134.0688,394.0082c-7.0185,0-12.709,5.69-12.709,12.709v19.5829l-20.8175-5.6419c-6.7773-1.8383-13.7555,2.167-15.5915,8.942-1.8359,6.7747,2.168,13.755,8.942,15.5907l20.0262,5.4272-12.1033,18.6536c-3.8205,5.888-2.1445,13.7583,3.7436,17.5788,2.1378,1.3869,4.5348,2.0492,6.9058,2.0492,4.1612,0,8.2396-2.042,10.6737-5.793l11.1146-17.1302,12.0409,17.922c2.4535,3.6513,6.4696,5.6227,10.5607,5.6227,2.4372,0,4.9014-.6993,7.0758-2.1606,5.8264-3.9145,7.3767-11.8106,3.4624-17.6368l-12.888-19.1834,19.7389-5.3495c6.7742-1.8357,10.7782-8.816,8.942-15.5907-1.836-6.7742-8.8111-10.7769-15.5912-8.942l-20.817,5.6416v-19.5827c0-7.0191-5.6905-12.709-12.709-12.709Z" style="fill: url(#uuid-8731d824-7085-405b-889e-648d7ed13d2b);"/>
      </g>
      <g>
        <path d="m281.9251,394.9612c-7.0185,0-12.709,5.69-12.709,12.709v19.5829l-20.8175-5.6419c-6.7773-1.8383-13.7555,2.167-15.5915,8.942-1.8359,6.7747,2.168,13.755,8.942,15.5907l20.0262,5.4272-12.1033,18.6536c-3.8205,5.888-2.1445,13.7583,3.7436,17.5788,2.1378,1.3869,4.5348,2.0492,6.9058,2.0492,4.1612,0,8.2396-2.042,10.6737-5.793l11.1146-17.1302,12.0409,17.922c2.4535,3.6513,6.4696,5.6227,10.5607,5.6227,2.4372,0,4.9014-.6993,7.0758-2.1606,5.8264-3.9145,7.3767-11.8106,3.4624-17.6368l-12.888-19.1834,19.7389-5.3495c6.7742-1.8357,10.7782-8.816,8.942-15.5907-1.836-6.7742-8.8111-10.7769-15.5912-8.942l-20.817,5.6416v-19.5827c0-7.0191-5.6905-12.709-12.709-12.709Z" style="fill: #97afb9;"/>
        <path d="m280.5225,394.0082c-7.0185,0-12.709,5.69-12.709,12.709v19.5829l-20.8175-5.6419c-6.7773-1.8383-13.7555,2.167-15.5915,8.942-1.8359,6.7747,2.168,13.755,8.942,15.5907l20.0262,5.4272-12.1033,18.6536c-3.8205,5.888-2.1445,13.7583,3.7436,17.5788,2.1378,1.3869,4.5348,2.0492,6.9058,2.0492,4.1612,0,8.2396-2.042,10.6737-5.793l11.1146-17.1302,12.0409,17.922c2.4535,3.6513,6.4696,5.6227,10.5607,5.6227,2.4372,0,4.9014-.6993,7.0758-2.1606,5.8264-3.9145,7.3767-11.8106,3.4624-17.6368l-12.888-19.1834,19.7389-5.3495c6.7742-1.8357,10.7782-8.816,8.942-15.5907-1.836-6.7742-8.8111-10.7769-15.5912-8.942l-20.817,5.6416v-19.5827c0-7.0191-5.6905-12.709-12.709-12.709Z" style="fill: url(#uuid-a9d97040-e3bd-4db5-a467-08fff04929ae);"/>
      </g>
      <g>
        <path d="m426.0191,394.9612c-7.0185,0-12.709,5.69-12.709,12.709v19.5829l-20.8175-5.6419c-6.7773-1.8383-13.7555,2.167-15.5915,8.942-1.8359,6.7747,2.168,13.755,8.942,15.5907l20.0262,5.4272-12.1033,18.6536c-3.8205,5.888-2.1445,13.7583,3.7436,17.5788,2.1378,1.3869,4.5348,2.0492,6.9058,2.0492,4.1612,0,8.2396-2.042,10.6737-5.793l11.1146-17.1302,12.0409,17.922c2.4535,3.6513,6.4696,5.6227,10.5607,5.6227,2.4372,0,4.9014-.6993,7.0758-2.1606,5.8264-3.9145,7.3767-11.8106,3.4624-17.6368l-12.888-19.1834,19.7389-5.3495c6.7742-1.8357,10.7782-8.816,8.942-15.5907-1.836-6.7742-8.8111-10.7769-15.5912-8.942l-20.817,5.6416v-19.5827c0-7.0191-5.6905-12.709-12.709-12.709Z" style="fill: #97afb9;"/>
        <path d="m424.6166,394.0082c-7.0185,0-12.709,5.69-12.709,12.709v19.5829l-20.8175-5.6419c-6.7773-1.8383-13.7555,2.167-15.5915,8.942-1.8359,6.7747,2.168,13.755,8.942,15.5907l20.0262,5.4272-12.1033,18.6536c-3.8205,5.888-2.1445,13.7583,3.7436,17.5788,2.1378,1.3869,4.5348,2.0492,6.9058,2.0492,4.1612,0,8.2396-2.042,10.6737-5.793l11.1146-17.1302,12.0409,17.922c2.4535,3.6513,6.4696,5.6227,10.5607,5.6227,2.4372,0,4.9014-.6993,7.0758-2.1606,5.8264-3.9145,7.3767-11.8106,3.4624-17.6368l-12.888-19.1834,19.7389-5.3495c6.7742-1.8357,10.7782-8.816,8.942-15.5907-1.836-6.7742-8.8111-10.7769-15.5912-8.942l-20.817,5.6416v-19.5827c0-7.0191-5.6905-12.709-12.709-12.709Z" style="fill: url(#uuid-a6f89d3f-b9fc-4822-a713-b5dd94a3d168);"/>
      </g>
    </g>
  </g>
</svg>