<?xml version="1.0" encoding="UTF-8"?>
<svg id="uuid-a41cd697-7faa-4bb9-a541-d98cea202e83" data-name="Ebene 2" xmlns="http://www.w3.org/2000/svg" width="554.8357" height="436.9005" xmlns:xlink="http://www.w3.org/1999/xlink" viewBox="0 0 554.8357 436.9005">
  <defs>
    <linearGradient id="uuid-014abe6f-7e14-4de5-8962-fed01c5ca58a" x1="105.8913" y1="140.925" x2="368.1241" y2="384.0708" gradientUnits="userSpaceOnUse">
      <stop offset="0" stop-color="#00b9f7"/>
      <stop offset="1" stop-color="#0099db"/>
    </linearGradient>
    <linearGradient id="uuid-b18ed986-7d23-466d-84e1-e9e68059e264" x1="239.3375" y1="32.0011" x2="489.056" y2="319.556" gradientUnits="userSpaceOnUse">
      <stop offset="0" stop-color="#ffb41c"/>
      <stop offset="1" stop-color="#ffa214"/>
    </linearGradient>
    <linearGradient id="uuid-93f3eef5-4552-4e58-b672-8cd732c4037d" x1="292.3152" y1="90.9554" x2="462.576" y2="291.4851" gradientTransform="translate(101.5704 -130.7498) rotate(23.1219)" gradientUnits="userSpaceOnUse">
      <stop offset="0" stop-color="#ffc825"/>
      <stop offset="1" stop-color="#ffb41c"/>
    </linearGradient>
    <linearGradient id="uuid-cf14ccd8-4361-476c-8645-f37d4812398d" x1="232.1542" y1="266.6102" x2="398.1246" y2="459.1359" gradientTransform="translate(.5701 -3.5945) rotate(.1261)" gradientUnits="userSpaceOnUse">
      <stop offset="0" stop-color="#00cdf9"/>
      <stop offset="1" stop-color="#00b4eb"/>
    </linearGradient>
  </defs>
  <g id="uuid-5ad24770-e441-4878-b983-b39539f7d8f3" data-name="Layer 2">
    <g>
      <g>
        <path d="m474.9061,243.0533c-12.8904-61.0495-77.433-96.1288-135.6391-74.085-19.2122-44.0402-63.1686-74.7893-114.2772-74.6733-62.8072.1407-114.6022,46.8357-122.8748,107.345C49.3916,193.152,1.8262,233.8623,1.9457,287.0621c.1072,47.6859,38.8518,86.2568,86.5389,86.1497l401.0416-.9019c36.1516-.0813,65.3907-29.4522,65.3094-65.6025-.0926-41.4757-38.5353-73.0092-79.9294-63.6542Z" style="fill: #0089dc;"/>
        <path d="m472.9698,240.7031c-12.8904-61.0507-77.433-96.1297-135.6389-74.0863-19.2124-44.0402-63.1688-74.7881-114.2787-74.6733-62.806.1407-114.6009,46.8345-122.8733,107.3462C47.4553,190.8008-.1101,231.5109.0094,284.7107c.1072,47.6861,38.8521,86.2568,86.5392,86.1497l401.0416-.9006c36.1504-.0813,65.3907-29.4534,65.3091-65.6038-.0936-41.4744-38.535-73.0092-79.9294-63.6529Z" style="fill: url(#uuid-014abe6f-7e14-4de5-8962-fed01c5ca58a);"/>
        <path d="m337.331,166.6168c-11.0056-24.5599-30.1387-45.1182-53.4265-58.2384-23.3659-13.0178-50.9803-18.1657-77.3985-14.3256-26.4637,3.5164-51.556,16.1213-70.2494,35.1169-18.9178,18.7683-31.4924,43.7768-35.2766,70.2284l-.1172.8213-.8135-.1306c-12.2063-1.973-24.8334-1.3505-36.7586,1.9595-11.9284,3.2878-23.1225,9.2179-32.586,17.2215-9.4354,8.0295-17.1968,18.0541-22.4921,29.2972C2.902,259.8049.1197,272.231.0094,284.7107c-.3781-24.9763,10.7009-50.035,29.9424-66.3246,9.5391-8.1701,20.8615-14.2608,32.9641-17.6757,12.0991-3.4395,24.9484-4.1547,37.3903-2.2208l-.9298.6898c3.6659-26.8231,16.2629-52.2982,35.3859-71.5038,19.0516-19.2984,44.6885-31.8708,71.5161-35.2911,26.7963-3.7272,54.7009,1.6661,78.2109,14.9538,23.5521,13.2865,42.2233,34.6203,52.8417,59.2785Z" style="fill: #0ce1ff;"/>
      </g>
      <g>
        <path d="m399.4573,80.0989h-58.1692l20.3952-73.4913c1.0825-3.9049,4.638-6.6076,8.6899-6.6076h0c4.0522,0,7.6065,2.7027,8.6899,6.6076l20.3942,73.4913Zm-147.5897-28.0039c-3.5277-1.9952-7.9514-1.3926-10.8171,1.4719v.0012c-2.8657,2.8645-3.4683,7.2894-1.4729,10.8159l37.5452,66.3881,41.132-41.1318-66.3871-37.5454Zm-57.7765,122.1047c-3.9048,1.0837-6.6076,4.639-6.6076,8.6912h0c0,4.0509,2.7027,7.6062,6.6076,8.6899l73.4913,20.3942v-58.1695l-73.4913,20.3942Zm45.4865,127.197c-1.9954,3.5262-1.3928,7.9511,1.4729,10.8169h0c2.8658,2.8645,7.2894,3.4674,10.8171,1.4732l66.3871-37.5464-41.132-41.132-37.5452,66.3884Zm122.1057,57.7763c1.0825,3.9049,4.638,6.6076,8.6899,6.6076h0c4.0522,0,7.6065-2.7027,8.6899-6.6076l20.3942-73.4913h-58.1692l20.3952,73.4913Zm127.1958-45.4862c3.5265,1.9942,7.9511,1.3914,10.8169-1.4732h0c2.8648-2.8658,3.4674-7.2907,1.4732-10.8169l-37.5452-66.3884-41.132,41.132,66.3871,37.5464Zm57.7775-122.1059c3.9036-1.0837,6.6066-4.639,6.6066-8.6899h0c0-4.0522-2.7029-7.6075-6.6066-8.6912l-73.4911-20.3942v58.1695l73.4911-20.3942Zm-45.4875-127.1967c1.9942-3.5265,1.3916-7.9514-1.4732-10.8159v-.0012c-2.8658-2.8645-7.2904-3.4671-10.8169-1.4719l-66.3871,37.5454,41.132,41.1318,37.5452-66.3881Z" style="fill: url(#uuid-b18ed986-7d23-466d-84e1-e9e68059e264);"/>
        <circle cx="372.1599" cy="184.2568" r="115.7292" transform="translate(-21.2861 317.1244) rotate(-45)" style="fill: #ffa214;"/>
        <circle cx="370.3732" cy="182.8905" r="115.7291" transform="translate(-42.0675 160.1324) rotate(-23.1219)" style="fill: url(#uuid-93f3eef5-4552-4e58-b672-8cd732c4037d);"/>
        <path d="m272.0541,243.9672c-13.5265-21.0625-19.8419-46.7621-17.4079-71.8107,2.3391-24.9864,12.6561-49.3588,29.8419-67.8492,8.5493-9.2132,18.4645-17.2303,29.5293-23.2486,11.0717-5.9838,23.0624-10.1798,35.4128-12.4576l9.3216-1.3613,9.4085-.441c6.2728-.2599,12.5603.2601,18.7661,1.1428,12.4049,1.9085,24.473,5.8399,35.5767,11.5971-22.4621-11.1172-48.4079-14.3914-72.8787-9.8717-12.2186,2.3457-24.0499,6.5874-34.9484,12.58-10.8941,6.024-20.6152,14.0209-28.9893,23.1585-17.0818,18.1086-27.4649,42.1105-29.9655,66.849-2.4652,24.79,3.3577,50.322,16.3331,71.7127Z" style="fill: #ffeb57;"/>
      </g>
      <g>
        <path d="m399.1807,279.7806c-13.1516-38.9045-49.9257-66.9242-93.2707-66.9242-54.8627,0-99.685,45.011-98.4005,100.7589-35.5612-1.2298-63.8441,27.2136-63.8441,61.5885,0,34.0746,27.6223,61.6967,61.6969,61.6967h207.4128c43.7165,0,79.1539-35.4382,79.1539-79.1536,0-49.0373-44.1619-86.3817-92.7484-77.9662Z" style="fill: #0098dc;"/>
        <path d="m397.5548,277.9837c-13.1506-38.9055-49.926-66.9261-93.2697-66.9249-54.8627,0-99.685,45.011-98.4018,100.7586-35.5599-1.2298-63.8438,27.2136-63.8438,61.5885.0012,34.0746,27.6233,61.6969,61.6979,61.6969l207.4141-.0012c43.7143,0,79.1527-35.4372,79.1527-79.1527,0-49.0386-44.1619-86.383-92.7493-77.9653Z" style="fill: url(#uuid-cf14ccd8-4361-476c-8645-f37d4812398d);"/>
        <path d="m379.2496,245.7158c-13.2643-15.2529-31.26-26.0597-50.6856-30.9655-9.71-2.4573-19.8226-3.4228-29.8039-2.6606-9.981.5469-19.9163,2.597-29.1913,6.3366-18.7801,7.0327-34.7831,20.3895-46.1536,36.7495-5.5308,8.3207-9.8394,17.4168-12.8189,26.9727-2.7096,9.6408-3.9697,19.6275-3.9808,29.651l-.001.7802-.7568-.0313c-14.2318-.5804-28.6308,3.9448-39.8786,12.7665-11.3505,8.6532-19.594,21.4308-22.6539,35.5254,2.7027-14.1581,10.6304-27.304,21.9853-36.3758,11.3638-9.0794,26.0309-13.8455,40.5974-13.3779l-.7555.7477c-.0803-10.1688,1.1083-20.3306,3.7832-30.1688,2.9439-9.7524,7.2525-19.0651,12.8234-27.6033,11.3394-16.9379,28.081-30.239,47.1816-37.2809,9.4768-3.7228,19.5972-5.7192,29.7357-6.1856,10.1375-.6819,20.3797.386,30.1934,2.9606,19.7157,5.0016,37.5028,16.6433,50.3799,32.1595Z" style="fill: #0cf1ff;"/>
      </g>
    </g>
  </g>
</svg>