<?xml version="1.0" encoding="UTF-8"?>
<svg id="uuid-b83d1805-afb8-4300-939c-d2e4cbdd01b4" data-name="Ebene 2" xmlns="http://www.w3.org/2000/svg" width="499.4928" height="498.2948" xmlns:xlink="http://www.w3.org/1999/xlink" viewBox="0 0 499.4928 498.2948">
  <defs>
    <linearGradient id="uuid-caef8053-e4e6-4a6a-b660-475141cf1bc6" x1=".0084" y1="126.1886" x2="497.7498" y2="126.1886" gradientUnits="userSpaceOnUse">
      <stop offset="0" stop-color="#76709a"/>
      <stop offset="1" stop-color="#5b537d"/>
    </linearGradient>
    <linearGradient id="uuid-4ee62989-50e3-4ba4-8e84-2c99431cc7e0" x1="216.4065" y1="142.3508" x2="365.823" y2="315.6741" gradientTransform="translate(.5928 -3.4908) rotate(.1261)" gradientUnits="userSpaceOnUse">
      <stop offset="0" stop-color="#928fb8"/>
      <stop offset="1" stop-color="#76719a"/>
    </linearGradient>
    <linearGradient id="uuid-fb2a881c-4aca-46ad-b6a1-09d72f2c1c5f" x1="250.4263" y1="281.6271" x2="356.0129" y2="413.1124" gradientUnits="userSpaceOnUse">
      <stop offset="0" stop-color="#ffc825"/>
      <stop offset="1" stop-color="#ffb41c"/>
    </linearGradient>
    <linearGradient id="uuid-21721280-457b-49a8-8cd6-97703c680ef0" x1="154.2703" y1="418.1337" x2="207.0623" y2="469.9295" gradientUnits="userSpaceOnUse">
      <stop offset="0" stop-color="#93eaf8"/>
      <stop offset="1" stop-color="#78d7ff"/>
    </linearGradient>
    <linearGradient id="uuid-82d893d9-c5f3-4de4-951a-95bdd3c10594" x1="48.6724" y1="314.2468" x2="101.4671" y2="366.0453" xlink:href="#uuid-21721280-457b-49a8-8cd6-97703c680ef0"/>
  </defs>
  <g id="uuid-071ae654-0562-432f-9493-e0611f25e23f" data-name="Layer 2">
    <g>
      <g>
        <g>
          <path d="m427.5358,136.6769c-11.6058-54.9586-69.7118-86.5368-122.1129-66.6927C288.1265,30.3355,248.5579,2.6555,202.5435,2.7553c-56.5416.1283-103.1667,42.1656-110.6156,96.6419C44.4631,91.7542,1.642,128.4036,1.7505,176.2948c.0954,42.9308,34.9754,77.6573,77.9061,77.5586l361.0384-.8101c32.5472-.0745,58.8667-26.5179,58.7977-59.0597-.0844-37.3389-34.6925-65.7292-71.9569-57.3068Z" style="fill: #474061;"/>
          <path d="m425.7928,134.5611c-11.6058-54.9586-69.7118-86.5412-122.1129-66.6927C286.3835,28.2208,246.8105.5354,200.8004.6396c-56.5416.1294-103.1678,42.1656-110.6167,96.6419C42.7201,89.6396-.1011,126.2878.0086,174.179c.0932,42.9308,34.9743,77.6529,77.905,77.5586l361.0384-.8101c32.5472-.0745,58.8667-26.5179,58.7977-59.0597-.0844-37.3389-34.6925-65.7292-71.9569-57.3068Z" style="fill: url(#uuid-caef8053-e4e6-4a6a-b660-475141cf1bc6);"/>
          <path d="m303.6799,67.8684c-9.9067-22.1133-27.1338-40.621-48.0951-52.4307C234.5502,3.7178,209.6898-.9149,185.9081,2.5415c-23.8267,3.1626-46.4168,14.5109-63.2462,31.6132-17.0278,16.8941-28.3508,39.4096-31.7579,63.221l-.1039.74-.7345-.1184c-10.99-1.7737-22.3568-1.2124-33.089,1.7671-10.7409,2.9598-20.8164,8.2985-29.3385,15.5041-8.4914,7.2253-15.4788,16.2539-20.2464,26.3743C2.6099,151.7578.1072,162.9459.0086,174.179c-.3431-22.486,9.6337-45.041,26.9542-59.7053,8.5857-7.3546,18.782-12.8424,29.6762-15.9162,10.8911-3.0936,22.4564-3.7393,33.6599-1.9962l-.8397.6216c3.3032-24.1501,14.6446-47.0822,31.8566-64.3742C138.4685,15.4376,161.5498,4.1157,185.6998,1.0364c24.1237-3.3512,49.2473,1.4996,70.4112,13.4629,21.2001,11.9632,38.0098,31.166,47.5689,53.3691Z" style="fill: #9693bd;"/>
        </g>
        <g>
          <path d="m367.0653,153.9678c-11.8382-35.0192-44.9467-60.2469-83.9637-60.2469-49.3911,0-89.7446,40.5223-88.5881,90.708-32.0155-1.1072-57.4756,24.5019-57.4756,55.4454,0,30.6738,24.8692,55.544,55.544,55.544h186.7252c39.3548,0,71.2561-31.9015,71.2561-71.2564,0-44.1476-39.7582-77.7669-83.498-70.1941Z" style="fill: #625a87;"/>
          <path d="m365.6051,152.3541c-11.8382-35.0247-44.9456-60.2524-83.9683-60.2524-49.392,0-89.74,40.5223-88.5878,90.708-32.0101-1.1072-57.4701,24.5019-57.4701,55.4454,0,30.6792,24.8637,55.544,55.5386,55.544h186.7239c39.3559,0,71.2618-31.9015,71.2618-71.2564,0-44.1476-39.7572-77.7669-83.498-70.1886Z" style="fill: url(#uuid-4ee62989-50e3-4ba4-8e84-2c99431cc7e0);"/>
          <path d="m349.1232,123.3028c-11.938-13.7303-28.1414-23.4583-45.6264-27.8784-8.7458-2.21-17.8478-3.0793-26.8314-2.3931-8.9878.4911-17.9311,2.3383-26.28,5.7059-16.9083,6.3308-31.3148,18.3532-41.5495,33.0822-4.9811,7.4895-8.8598,15.6784-11.5412,24.2838-2.4435,8.6756-3.5759,17.6691-3.5858,26.6922v.7005l-.6797-.0252c-12.8128-.5262-25.7777,3.5507-35.9039,11.4907-10.2147,7.792-17.6395,19.2926-20.3955,31.9816,2.4336-12.7426,9.5745-24.5765,19.7947-32.7456,10.2301-8.1746,23.4342-12.4653,36.5496-12.0432l-.6808.6709c-.0745-9.1525.9976-18.2995,3.4071-27.1592,2.6463-8.7797,6.5292-17.1616,11.5403-24.8495,10.2101-15.2497,25.2811-27.2228,42.4791-33.5645,8.5307-3.3468,17.6437-5.1446,26.7709-5.5667,9.1229-.6161,18.3444.3475,27.179,2.6671,17.748,4.5033,33.7629,14.9822,45.3534,28.9505Z" style="fill: #aeabcc;"/>
        </g>
      </g>
      <g>
        <path d="m293.5244,490.7629l14.3815-110.7548c.5218-3.9881-2.5816-7.5136-6.5993-7.5136h-78.9583c-4.8971,0-8.12-5.115-5.9988-9.5351l80.1153-167.3227c3.2677-6.823,13.5824-3.7732,12.6032,3.7349l-14.3804,110.7559c-.5174,3.9826,2.5816,7.5125,6.5993,7.5125h78.9585c4.8958,0,8.1187,5.115,6.0041,9.5307l-80.1205,167.3216c-3.2679,6.8284-13.5769,3.7743-12.6045-3.7294Z" style="fill: #ffa214;"/>
        <path d="m292.3722,489.2392l14.387-110.7614c.5163-3.9826-2.5871-7.5125-6.6048-7.5125h-78.9541c-4.9013,0-8.1187-5.1106-6.003-9.5296l80.115-167.3227c3.2681-6.8241,13.5824-3.7743,12.6034,3.7338l-14.3815,110.7559c-.5163,3.9826,2.5827,7.5136,6.6004,7.5136h78.9585c4.8958,0,8.1187,5.1096,6.0041,9.5296l-80.1205,167.3227c-3.2679,6.8274-13.5766,3.7732-12.6045-3.7294Z" style="fill: url(#uuid-fb2a881c-4aca-46ad-b6a1-09d72f2c1c5f);"/>
        <path d="m221.2003,370.9653c-4.568.2927-8.3171-5.0164-6.3308-9.3465l5.4428-11.9577,11.1882-23.7576,22.3864-47.5086,22.9725-47.2258,11.4907-23.6085,5.8846-11.7451c.889-1.9217,2.0017-4.1416,4.1569-5.0054,2.0511-.9186,4.4836-.6654,6.3615.4571-1.9173-1.0579-4.32-1.2015-6.2628-.2379-2.0456.923-2.9793,2.9894-3.8281,4.9901l-5.4582,11.9479-11.1882,23.7576-22.3917,47.5042-22.9714,47.2258-11.4921,23.6129-5.8594,11.7352c-2.016,3.9377,1.3111,9.2665,5.8988,9.1623Z" style="fill: #ffeb57;"/>
      </g>
      <g>
        <path d="m222.3579,453.6126c0,20.9271-16.9642,37.8903-37.8903,37.8903s-37.8903-16.9631-37.8903-37.8903c0-14.2763,17.6439-40.9784,28.852-56.4967,4.4549-6.1729,13.6172-6.1729,18.0769,0,11.2077,15.5183,28.8516,42.2204,28.8516,56.4967Z" style="fill: #70c4ff;"/>
        <path d="m220.5504,452.2423c0,20.9271-16.9634,37.8903-37.8905,37.8903s-37.8903-16.9631-37.8903-37.8903c0-14.2774,17.6439-40.974,28.8529-56.4923,4.4584-6.1729,13.6207-6.1729,18.0758,0,11.2079,15.5183,28.852,42.2149,28.852,56.4923Z" style="fill: url(#uuid-21721280-457b-49a8-8cd6-97703c680ef0);"/>
        <path d="m149.1897,470.0101c-4.2655-7.4391-6.3713-16.6551-3.953-25.2715,2.255-8.5112,6.436-16.233,10.662-23.7861,4.4343-7.4588,9.2073-14.6994,14.3113-21.6912,1.3462-1.7386,2.4293-3.4915,4.0374-5.1896,1.6246-1.5939,3.6998-2.7263,5.9153-3.1484,4.4595-.8594,9.1612,1.1817,11.5357,4.8267-2.6518-3.4718-7.3097-4.9912-11.3373-3.9037-2.0116.4922-3.839,1.5841-5.2387,3.0738-1.3168,1.4854-2.4733,3.4663-3.6956,5.1951-4.8366,7.1409-9.5942,14.3366-13.8641,21.8052-4.3312,7.404-8.4224,15.0568-10.901,23.2062-1.2815,4.0572-1.5981,8.2974-1.0228,12.5585.4571,4.2457,1.6586,8.4366,3.5507,12.325Z" style="fill: #94fdff;"/>
      </g>
      <g>
        <path d="m116.7576,349.7301c0,20.9271-16.9642,37.8903-37.8859,37.8903s-37.8903-16.9631-37.8903-37.8903c0-14.2817,17.6395-40.9784,28.8476-56.4978,4.4593-6.1718,13.6216-6.1718,18.0811,0,11.2024,15.5194,28.8474,42.216,28.8474,56.4978Z" style="fill: #70c4ff;"/>
        <path d="m114.9543,348.3598c0,20.926-16.9629,37.8903-37.89,37.8903s-37.8905-16.9642-37.8905-37.8903c0-14.2774,17.645-40.974,28.8529-56.4978,4.454-6.1729,13.6163-6.1729,18.0758,0,11.2079,15.5238,28.8518,42.2204,28.8518,56.4978Z" style="fill: url(#uuid-82d893d9-c5f3-4de4-951a-95bdd3c10594);"/>
        <path d="m43.5894,366.1276c-4.2611-7.4434-6.3669-16.6551-3.9486-25.2759,2.255-8.5068,6.4316-16.2287,10.6576-23.7828,4.4387-7.4588,9.2062-14.6983,14.3168-21.6912,1.3451-1.7375,2.4282-3.4959,4.0363-5.1885,1.6246-1.595,3.6998-2.7263,5.9098-3.1484,4.4652-.8594,9.1623,1.1817,11.5412,4.8212-2.6518-3.4663-7.3152-4.9857-11.3373-3.8982-2.0116.4922-3.8434,1.5841-5.2389,3.0738-1.3166,1.4854-2.4775,3.4663-3.6998,5.1951-4.8322,7.1409-9.5899,14.3366-13.8597,21.8052-4.3312,7.404-8.4279,15.0568-10.901,23.2062-1.2804,4.0572-1.6038,8.2974-1.0228,12.5585.4571,4.2457,1.6542,8.4366,3.5463,12.325Z" style="fill: #94fdff;"/>
      </g>
    </g>
  </g>
</svg>